<mxfile host="app.diagrams.net" agent="Mozilla/5.0 (Macintosh; Intel Mac OS X 10_15_7) AppleWebKit/537.36 (KHTML, like Gecko) Chrome/138.0.0.0 Safari/537.36" version="28.0.9">
  <diagram name="Page-1" id="jT6W8AXPgKcVH_7LFxJg">
    <mxGraphModel dx="1106" dy="733" grid="1" gridSize="10" guides="1" tooltips="1" connect="1" arrows="1" fold="1" page="1" pageScale="1" pageWidth="850" pageHeight="1100" math="0" shadow="0">
      <root>
        <mxCell id="0" />
        <mxCell id="1" parent="0" />
        <mxCell id="-qHoK-6Rp-mgKh5PQcaD-12" style="edgeStyle=orthogonalEdgeStyle;rounded=0;orthogonalLoop=1;jettySize=auto;html=1;entryX=0.5;entryY=0;entryDx=0;entryDy=0;" parent="1" source="Z2eiCYu6UJyup5MQ1bos-91" edge="1">
          <mxGeometry relative="1" as="geometry">
            <mxPoint x="440" y="130" as="targetPoint" />
            <Array as="points">
              <mxPoint x="440" y="130" />
            </Array>
          </mxGeometry>
        </mxCell>
        <mxCell id="Z2eiCYu6UJyup5MQ1bos-91" value="Start" style="ellipse;whiteSpace=wrap;html=1;fillColor=#d5e8d4;strokeColor=#82b366;" parent="1" vertex="1">
          <mxGeometry x="380" y="30" width="120" height="70" as="geometry" />
        </mxCell>
        <mxCell id="Z2eiCYu6UJyup5MQ1bos-101" style="edgeStyle=orthogonalEdgeStyle;rounded=0;orthogonalLoop=1;jettySize=auto;html=1;" parent="1" source="Z2eiCYu6UJyup5MQ1bos-96" target="Z2eiCYu6UJyup5MQ1bos-103" edge="1">
          <mxGeometry relative="1" as="geometry">
            <mxPoint x="440" y="330" as="targetPoint" />
            <Array as="points">
              <mxPoint x="440" y="310" />
              <mxPoint x="440" y="310" />
            </Array>
          </mxGeometry>
        </mxCell>
        <mxCell id="Z2eiCYu6UJyup5MQ1bos-96" value="Input the current time&lt;div&gt;from real time clock&lt;/div&gt;" style="shape=parallelogram;perimeter=parallelogramPerimeter;whiteSpace=wrap;html=1;fixedSize=1;fillColor=#fff2cc;strokeColor=#d6b656;" parent="1" vertex="1">
          <mxGeometry x="367.5" y="270" width="145" height="60" as="geometry" />
        </mxCell>
        <mxCell id="Z2eiCYu6UJyup5MQ1bos-100" style="edgeStyle=orthogonalEdgeStyle;rounded=0;orthogonalLoop=1;jettySize=auto;html=1;" parent="1" target="-qHoK-6Rp-mgKh5PQcaD-7" edge="1">
          <mxGeometry relative="1" as="geometry">
            <mxPoint x="440" y="190" as="sourcePoint" />
            <mxPoint x="440" y="230" as="targetPoint" />
            <Array as="points">
              <mxPoint x="440" y="200" />
              <mxPoint x="440" y="200" />
            </Array>
          </mxGeometry>
        </mxCell>
        <mxCell id="Z2eiCYu6UJyup5MQ1bos-105" style="edgeStyle=orthogonalEdgeStyle;rounded=0;orthogonalLoop=1;jettySize=auto;html=1;entryX=1;entryY=0.5;entryDx=0;entryDy=0;" parent="1" source="Z2eiCYu6UJyup5MQ1bos-103" target="-qHoK-6Rp-mgKh5PQcaD-7" edge="1">
          <mxGeometry relative="1" as="geometry">
            <Array as="points">
              <mxPoint x="640" y="400" />
              <mxPoint x="640" y="230" />
            </Array>
          </mxGeometry>
        </mxCell>
        <mxCell id="Z2eiCYu6UJyup5MQ1bos-125" style="edgeStyle=orthogonalEdgeStyle;rounded=0;orthogonalLoop=1;jettySize=auto;html=1;entryX=0.5;entryY=0;entryDx=0;entryDy=0;" parent="1" source="Z2eiCYu6UJyup5MQ1bos-103" target="Z2eiCYu6UJyup5MQ1bos-127" edge="1">
          <mxGeometry relative="1" as="geometry">
            <mxPoint x="445" y="475" as="targetPoint" />
          </mxGeometry>
        </mxCell>
        <mxCell id="Z2eiCYu6UJyup5MQ1bos-103" value="Is it feeding time?" style="rhombus;whiteSpace=wrap;html=1;fillColor=#dae8fc;strokeColor=#6c8ebf;" parent="1" vertex="1">
          <mxGeometry x="352.5" y="360" width="175" height="80" as="geometry" />
        </mxCell>
        <mxCell id="Z2eiCYu6UJyup5MQ1bos-130" style="edgeStyle=orthogonalEdgeStyle;rounded=0;orthogonalLoop=1;jettySize=auto;html=1;entryX=0.5;entryY=0;entryDx=0;entryDy=0;" parent="1" edge="1">
          <mxGeometry relative="1" as="geometry">
            <mxPoint x="653.75" y="660" as="targetPoint" />
            <mxPoint x="527.4999999999995" y="620.0000000000002" as="sourcePoint" />
            <Array as="points">
              <mxPoint x="653.75" y="620" />
            </Array>
          </mxGeometry>
        </mxCell>
        <mxCell id="Z2eiCYu6UJyup5MQ1bos-131" style="edgeStyle=orthogonalEdgeStyle;rounded=0;orthogonalLoop=1;jettySize=auto;html=1;" parent="1" source="Z2eiCYu6UJyup5MQ1bos-107" target="Z2eiCYu6UJyup5MQ1bos-132" edge="1">
          <mxGeometry relative="1" as="geometry">
            <mxPoint x="229.9999999999999" y="740" as="targetPoint" />
            <Array as="points">
              <mxPoint x="230" y="620" />
              <mxPoint x="230" y="740" />
            </Array>
          </mxGeometry>
        </mxCell>
        <mxCell id="Z2eiCYu6UJyup5MQ1bos-107" value="&lt;font style=&quot;font-size: 11px;&quot;&gt;Is the food level &amp;lt;= 1&amp;nbsp;&lt;/font&gt;&lt;div&gt;&lt;font style=&quot;font-size: 11px;&quot;&gt;serving&amp;nbsp;&lt;/font&gt;&lt;span style=&quot;font-size: 11px; background-color: transparent; color: light-dark(rgb(0, 0, 0), rgb(255, 255, 255));&quot;&gt;in&amp;nbsp;&lt;/span&gt;&lt;span style=&quot;font-size: 11px; background-color: transparent; color: light-dark(rgb(0, 0, 0), rgb(255, 255, 255));&quot;&gt;t&lt;/span&gt;&lt;span style=&quot;font-size: 11px; background-color: transparent; color: light-dark(rgb(0, 0, 0), rgb(255, 255, 255));&quot;&gt;he storage?&lt;/span&gt;&lt;/div&gt;" style="rhombus;whiteSpace=wrap;html=1;fillColor=#dae8fc;strokeColor=#6c8ebf;" parent="1" vertex="1">
          <mxGeometry x="351.25" y="580" width="177.5" height="80" as="geometry" />
        </mxCell>
        <mxCell id="Z2eiCYu6UJyup5MQ1bos-133" style="edgeStyle=orthogonalEdgeStyle;rounded=0;orthogonalLoop=1;jettySize=auto;html=1;entryX=1;entryY=0.5;entryDx=0;entryDy=0;" parent="1" source="Z2eiCYu6UJyup5MQ1bos-110" target="Z2eiCYu6UJyup5MQ1bos-132" edge="1">
          <mxGeometry relative="1" as="geometry">
            <Array as="points">
              <mxPoint x="655" y="740" />
            </Array>
          </mxGeometry>
        </mxCell>
        <mxCell id="Z2eiCYu6UJyup5MQ1bos-110" value="Alert staff" style="shape=parallelogram;perimeter=parallelogramPerimeter;whiteSpace=wrap;html=1;fixedSize=1;fillColor=#f8cecc;strokeColor=#b85450;" parent="1" vertex="1">
          <mxGeometry x="590" y="660" width="130" height="40" as="geometry" />
        </mxCell>
        <mxCell id="Z2eiCYu6UJyup5MQ1bos-137" style="edgeStyle=orthogonalEdgeStyle;rounded=0;orthogonalLoop=1;jettySize=auto;html=1;" parent="1" source="Z2eiCYu6UJyup5MQ1bos-115" target="Z2eiCYu6UJyup5MQ1bos-138" edge="1">
          <mxGeometry relative="1" as="geometry">
            <mxPoint x="440" y="870" as="targetPoint" />
          </mxGeometry>
        </mxCell>
        <mxCell id="Z2eiCYu6UJyup5MQ1bos-115" value="Dispense food" style="shape=parallelogram;perimeter=parallelogramPerimeter;whiteSpace=wrap;html=1;fixedSize=1;fillColor=#f8cecc;strokeColor=#b85450;" parent="1" vertex="1">
          <mxGeometry x="370" y="780" width="140" height="60" as="geometry" />
        </mxCell>
        <mxCell id="Z2eiCYu6UJyup5MQ1bos-129" style="edgeStyle=orthogonalEdgeStyle;rounded=0;orthogonalLoop=1;jettySize=auto;html=1;entryX=0.5;entryY=0;entryDx=0;entryDy=0;" parent="1" source="Z2eiCYu6UJyup5MQ1bos-127" target="Z2eiCYu6UJyup5MQ1bos-107" edge="1">
          <mxGeometry relative="1" as="geometry" />
        </mxCell>
        <mxCell id="Z2eiCYu6UJyup5MQ1bos-127" value="Input the food level&amp;nbsp;&lt;div&gt;in&amp;nbsp;&lt;span style=&quot;background-color: transparent; color: light-dark(rgb(0, 0, 0), rgb(255, 255, 255));&quot;&gt;t&lt;/span&gt;&lt;span style=&quot;background-color: transparent; color: light-dark(rgb(0, 0, 0), rgb(255, 255, 255));&quot;&gt;he storage&lt;/span&gt;&lt;/div&gt;" style="shape=parallelogram;perimeter=parallelogramPerimeter;whiteSpace=wrap;html=1;fixedSize=1;fillColor=#fff2cc;strokeColor=#d6b656;" parent="1" vertex="1">
          <mxGeometry x="365" y="480" width="150" height="60" as="geometry" />
        </mxCell>
        <mxCell id="Z2eiCYu6UJyup5MQ1bos-136" style="edgeStyle=orthogonalEdgeStyle;rounded=0;orthogonalLoop=1;jettySize=auto;html=1;entryX=0.5;entryY=0;entryDx=0;entryDy=0;" parent="1" source="Z2eiCYu6UJyup5MQ1bos-132" target="Z2eiCYu6UJyup5MQ1bos-115" edge="1">
          <mxGeometry relative="1" as="geometry" />
        </mxCell>
        <mxCell id="Z2eiCYu6UJyup5MQ1bos-132" value="" style="ellipse;whiteSpace=wrap;html=1;aspect=fixed;fillColor=#f5f5f5;fontColor=#333333;strokeColor=#666666;" parent="1" vertex="1">
          <mxGeometry x="430" y="730" width="20" height="20" as="geometry" />
        </mxCell>
        <mxCell id="Z2eiCYu6UJyup5MQ1bos-139" style="edgeStyle=orthogonalEdgeStyle;rounded=0;orthogonalLoop=1;jettySize=auto;html=1;" parent="1" source="-qHoK-6Rp-mgKh5PQcaD-18" edge="1">
          <mxGeometry relative="1" as="geometry">
            <mxPoint x="440" y="960" as="targetPoint" />
          </mxGeometry>
        </mxCell>
        <mxCell id="Z2eiCYu6UJyup5MQ1bos-138" value="Wait 15 minutes" style="rounded=0;whiteSpace=wrap;html=1;fillColor=#e1d5e7;strokeColor=#9673a6;" parent="1" vertex="1">
          <mxGeometry x="380" y="870" width="120" height="60" as="geometry" />
        </mxCell>
        <mxCell id="Z2eiCYu6UJyup5MQ1bos-144" style="edgeStyle=orthogonalEdgeStyle;rounded=0;orthogonalLoop=1;jettySize=auto;html=1;" parent="1" source="Z2eiCYu6UJyup5MQ1bos-140" edge="1">
          <mxGeometry relative="1" as="geometry">
            <mxPoint x="440" y="1090" as="targetPoint" />
          </mxGeometry>
        </mxCell>
        <mxCell id="Z2eiCYu6UJyup5MQ1bos-140" value="Input the weight of&amp;nbsp;&lt;div&gt;the bowl&lt;/div&gt;" style="shape=parallelogram;perimeter=parallelogramPerimeter;whiteSpace=wrap;html=1;fixedSize=1;fillColor=#fff2cc;strokeColor=#d6b656;" parent="1" vertex="1">
          <mxGeometry x="370" y="1000" width="140" height="60" as="geometry" />
        </mxCell>
        <mxCell id="Z2eiCYu6UJyup5MQ1bos-147" style="edgeStyle=orthogonalEdgeStyle;rounded=0;orthogonalLoop=1;jettySize=auto;html=1;entryX=0.5;entryY=0;entryDx=0;entryDy=0;" parent="1" source="Z2eiCYu6UJyup5MQ1bos-143" target="Z2eiCYu6UJyup5MQ1bos-146" edge="1">
          <mxGeometry relative="1" as="geometry" />
        </mxCell>
        <mxCell id="-qHoK-6Rp-mgKh5PQcaD-26" style="edgeStyle=orthogonalEdgeStyle;rounded=0;orthogonalLoop=1;jettySize=auto;html=1;entryX=0;entryY=0.5;entryDx=0;entryDy=0;" parent="1" source="Z2eiCYu6UJyup5MQ1bos-143" target="Z2eiCYu6UJyup5MQ1bos-152" edge="1">
          <mxGeometry relative="1" as="geometry" />
        </mxCell>
        <mxCell id="Z2eiCYu6UJyup5MQ1bos-143" value="&lt;span style=&quot;font-size: 11px;&quot;&gt;Is there food left in the bowl?&lt;/span&gt;" style="rhombus;whiteSpace=wrap;html=1;fillColor=#dae8fc;strokeColor=#6c8ebf;" parent="1" vertex="1">
          <mxGeometry x="351.25" y="1090" width="177.5" height="80" as="geometry" />
        </mxCell>
        <mxCell id="Z2eiCYu6UJyup5MQ1bos-148" style="edgeStyle=orthogonalEdgeStyle;rounded=0;orthogonalLoop=1;jettySize=auto;html=1;entryX=0;entryY=0.5;entryDx=0;entryDy=0;" parent="1" source="Z2eiCYu6UJyup5MQ1bos-146" target="-qHoK-6Rp-mgKh5PQcaD-7" edge="1">
          <mxGeometry relative="1" as="geometry">
            <Array as="points">
              <mxPoint x="160" y="1240" />
              <mxPoint x="160" y="230" />
            </Array>
          </mxGeometry>
        </mxCell>
        <mxCell id="Z2eiCYu6UJyup5MQ1bos-149" style="edgeStyle=orthogonalEdgeStyle;rounded=0;orthogonalLoop=1;jettySize=auto;html=1;entryX=0.5;entryY=0;entryDx=0;entryDy=0;" parent="1" source="Z2eiCYu6UJyup5MQ1bos-146" target="-qHoK-6Rp-mgKh5PQcaD-16" edge="1">
          <mxGeometry relative="1" as="geometry">
            <mxPoint x="440" y="1340" as="targetPoint" />
          </mxGeometry>
        </mxCell>
        <mxCell id="Z2eiCYu6UJyup5MQ1bos-146" value="&lt;span style=&quot;font-size: 11px;&quot;&gt;Is all the scheduled&amp;nbsp;&lt;/span&gt;&lt;div&gt;&lt;span style=&quot;font-size: 11px;&quot;&gt;feeding&amp;nbsp;&lt;/span&gt;&lt;span style=&quot;font-size: 11px; background-color: transparent; color: light-dark(rgb(0, 0, 0), rgb(255, 255, 255));&quot;&gt;done?&lt;/span&gt;&lt;/div&gt;" style="rhombus;whiteSpace=wrap;html=1;fillColor=#dae8fc;strokeColor=#6c8ebf;" parent="1" vertex="1">
          <mxGeometry x="351.25" y="1200" width="177.5" height="80" as="geometry" />
        </mxCell>
        <mxCell id="-qHoK-6Rp-mgKh5PQcaD-24" style="edgeStyle=orthogonalEdgeStyle;rounded=0;orthogonalLoop=1;jettySize=auto;html=1;entryX=0.5;entryY=1;entryDx=0;entryDy=0;" parent="1" source="Z2eiCYu6UJyup5MQ1bos-152" target="-qHoK-6Rp-mgKh5PQcaD-23" edge="1">
          <mxGeometry relative="1" as="geometry" />
        </mxCell>
        <mxCell id="Z2eiCYu6UJyup5MQ1bos-152" value="Alert staff" style="shape=parallelogram;perimeter=parallelogramPerimeter;whiteSpace=wrap;html=1;fixedSize=1;fillColor=#f8cecc;strokeColor=#b85450;" parent="1" vertex="1">
          <mxGeometry x="590" y="1110" width="130" height="40" as="geometry" />
        </mxCell>
        <mxCell id="Z2eiCYu6UJyup5MQ1bos-160" value="&lt;font&gt;No&lt;/font&gt;" style="text;html=1;align=center;verticalAlign=middle;resizable=0;points=[];autosize=1;strokeColor=none;fillColor=none;" parent="1" vertex="1">
          <mxGeometry x="527.5" y="380" width="40" height="30" as="geometry" />
        </mxCell>
        <mxCell id="Z2eiCYu6UJyup5MQ1bos-161" value="No" style="text;html=1;align=center;verticalAlign=middle;resizable=0;points=[];autosize=1;strokeColor=none;fillColor=none;" parent="1" vertex="1">
          <mxGeometry x="311.25" y="600" width="40" height="30" as="geometry" />
        </mxCell>
        <mxCell id="Z2eiCYu6UJyup5MQ1bos-163" value="No" style="text;html=1;align=center;verticalAlign=middle;resizable=0;points=[];autosize=1;strokeColor=none;fillColor=none;" parent="1" vertex="1">
          <mxGeometry x="440" y="1170" width="40" height="30" as="geometry" />
        </mxCell>
        <mxCell id="Z2eiCYu6UJyup5MQ1bos-164" value="No" style="text;html=1;align=center;verticalAlign=middle;resizable=0;points=[];autosize=1;strokeColor=none;fillColor=none;" parent="1" vertex="1">
          <mxGeometry x="311.25" y="1220" width="40" height="30" as="geometry" />
        </mxCell>
        <mxCell id="Z2eiCYu6UJyup5MQ1bos-165" value="Yes" style="text;html=1;align=center;verticalAlign=middle;resizable=0;points=[];autosize=1;strokeColor=none;fillColor=none;" parent="1" vertex="1">
          <mxGeometry x="440" y="1280" width="40" height="30" as="geometry" />
        </mxCell>
        <mxCell id="Z2eiCYu6UJyup5MQ1bos-167" value="Yes" style="text;html=1;align=center;verticalAlign=middle;resizable=0;points=[];autosize=1;strokeColor=none;fillColor=none;" parent="1" vertex="1">
          <mxGeometry x="527.5" y="1110" width="40" height="30" as="geometry" />
        </mxCell>
        <mxCell id="Z2eiCYu6UJyup5MQ1bos-168" value="Yes" style="text;html=1;align=center;verticalAlign=middle;resizable=0;points=[];autosize=1;strokeColor=none;fillColor=none;" parent="1" vertex="1">
          <mxGeometry x="528.75" y="600" width="40" height="30" as="geometry" />
        </mxCell>
        <mxCell id="Z2eiCYu6UJyup5MQ1bos-169" value="Yes" style="text;html=1;align=center;verticalAlign=middle;resizable=0;points=[];autosize=1;strokeColor=none;fillColor=none;" parent="1" vertex="1">
          <mxGeometry x="440" y="440" width="40" height="30" as="geometry" />
        </mxCell>
        <mxCell id="-qHoK-6Rp-mgKh5PQcaD-13" style="edgeStyle=orthogonalEdgeStyle;rounded=0;orthogonalLoop=1;jettySize=auto;html=1;entryX=0.5;entryY=0;entryDx=0;entryDy=0;" parent="1" source="-qHoK-6Rp-mgKh5PQcaD-7" target="Z2eiCYu6UJyup5MQ1bos-96" edge="1">
          <mxGeometry relative="1" as="geometry" />
        </mxCell>
        <mxCell id="-qHoK-6Rp-mgKh5PQcaD-7" value="" style="ellipse;whiteSpace=wrap;html=1;aspect=fixed;fillColor=#f5f5f5;fontColor=#333333;strokeColor=#666666;" parent="1" vertex="1">
          <mxGeometry x="430" y="220" width="20" height="20" as="geometry" />
        </mxCell>
        <mxCell id="-qHoK-6Rp-mgKh5PQcaD-14" value="Input the scheduled&amp;nbsp;&lt;div&gt;feeding times&lt;/div&gt;" style="shape=parallelogram;perimeter=parallelogramPerimeter;whiteSpace=wrap;html=1;fixedSize=1;fillColor=#fff2cc;strokeColor=#d6b656;" parent="1" vertex="1">
          <mxGeometry x="370" y="130" width="145" height="60" as="geometry" />
        </mxCell>
        <mxCell id="-qHoK-6Rp-mgKh5PQcaD-16" value="End" style="ellipse;whiteSpace=wrap;html=1;fillColor=#d5e8d4;strokeColor=#82b366;" parent="1" vertex="1">
          <mxGeometry x="380" y="1320" width="120" height="70" as="geometry" />
        </mxCell>
        <mxCell id="-qHoK-6Rp-mgKh5PQcaD-19" value="" style="edgeStyle=orthogonalEdgeStyle;rounded=0;orthogonalLoop=1;jettySize=auto;html=1;entryX=0.5;entryY=0;entryDx=0;entryDy=0;" parent="1" source="Z2eiCYu6UJyup5MQ1bos-138" target="-qHoK-6Rp-mgKh5PQcaD-18" edge="1">
          <mxGeometry relative="1" as="geometry">
            <mxPoint x="440" y="960" as="targetPoint" />
            <mxPoint x="440" y="930" as="sourcePoint" />
          </mxGeometry>
        </mxCell>
        <mxCell id="-qHoK-6Rp-mgKh5PQcaD-20" style="edgeStyle=orthogonalEdgeStyle;rounded=0;orthogonalLoop=1;jettySize=auto;html=1;" parent="1" source="-qHoK-6Rp-mgKh5PQcaD-18" target="Z2eiCYu6UJyup5MQ1bos-140" edge="1">
          <mxGeometry relative="1" as="geometry" />
        </mxCell>
        <mxCell id="-qHoK-6Rp-mgKh5PQcaD-18" value="" style="ellipse;whiteSpace=wrap;html=1;aspect=fixed;fillColor=#f5f5f5;fontColor=#333333;strokeColor=#666666;" parent="1" vertex="1">
          <mxGeometry x="430" y="960" width="20" height="20" as="geometry" />
        </mxCell>
        <mxCell id="-qHoK-6Rp-mgKh5PQcaD-27" style="edgeStyle=orthogonalEdgeStyle;rounded=0;orthogonalLoop=1;jettySize=auto;html=1;entryX=1;entryY=0.5;entryDx=0;entryDy=0;" parent="1" source="-qHoK-6Rp-mgKh5PQcaD-23" target="-qHoK-6Rp-mgKh5PQcaD-18" edge="1">
          <mxGeometry relative="1" as="geometry" />
        </mxCell>
        <mxCell id="-qHoK-6Rp-mgKh5PQcaD-23" value="Wait 1 minute" style="rounded=0;whiteSpace=wrap;html=1;fillColor=#e1d5e7;strokeColor=#9673a6;" parent="1" vertex="1">
          <mxGeometry x="600" y="950" width="110" height="40" as="geometry" />
        </mxCell>
      </root>
    </mxGraphModel>
  </diagram>
</mxfile>
